<?xml version="1.0" standalone="no"?>
<!DOCTYPE svg PUBLIC "-//W3C//DTD SVG 20010904//EN"
 "http://www.w3.org/TR/2001/REC-SVG-20010904/DTD/svg10.dtd">
<svg version="1.0" xmlns="http://www.w3.org/2000/svg"
 width="300.000000pt" height="300.000000pt" viewBox="0 0 300.000000 300.000000"
 preserveAspectRatio="xMidYMid meet">
<metadata>
Created by potrace 1.10, written by Peter Selinger 2001-2011
</metadata>
<g transform="translate(0.000000,300.000000) scale(0.050000,-0.050000)"
fill="#0000ff" stroke="none">
<path d="M1243 5237 c-230 -114 -269 -443 -72 -615 173 -152 446 -111 566 83
198 322 -154 700 -494 532z m212 -156 c79 -2 125 -69 125 -181 0 -117 -47
-180 -128 -171 -28 3 -46 -2 -40 -12 25 -40 -40 -12 -93 41 -31 31 -62 52 -68
46 -6 -6 -11 36 -11 93 0 57 9 103 20 103 12 0 31 22 43 49 16 35 35 48 65 42
23 -4 62 -9 87 -10z"/>
<path d="M2820 4436 c-115 -25 -136 -46 -78 -77 26 -14 92 -68 147 -119 97
-91 106 -95 244 -105 700 -48 980 -943 434 -1387 -261 -212 -669 -233 -924
-48 l-85 62 -69 -61 c-38 -33 -96 -74 -129 -91 -77 -40 -75 -48 26 -123 572
-425 1374 -242 1675 383 404 840 -328 1765 -1241 1566z"/>
<path d="M1726 4371 c-820 -187 -1142 -1193 -583 -1819 l105 -117 26 154 c15
86 34 169 43 185 11 20 -7 77 -55 171 -328 640 373 1368 1023 1061 305 -144
505 -485 464 -791 -11 -85 -9 -95 26 -95 22 0 90 -26 152 -57 l112 -57 10 62
c125 812 -552 1479 -1323 1303z"/>
<path d="M2101 3359 c-874 -423 -817 -1688 93 -2031 586 -221 1265 120 1447
727 33 111 31 112 -128 54 -74 -27 -152 -49 -174 -49 -25 0 -53 -29 -80 -82
-220 -431 -853 -528 -1219 -186 -392 367 -296 1044 181 1270 97 47 99 49 84
118 -8 38 -15 113 -15 165 0 114 15 113 -189 14z"/>
<path d="M4588 3363 c-195 -91 -270 -344 -159 -532 191 -327 691 -183 691 199
0 268 -288 447 -532 333z m197 -161 c22 -1 35 -18 36 -47 0 -43 2 -43 28 -8
39 50 71 -10 71 -132 0 -76 -58 -211 -59 -139 -1 15 -10 21 -21 14 -12 -7 -16
-20 -11 -28 5 -8 -2 -16 -15 -16 -13 -1 -49 -6 -79 -12 -30 -6 -55 -2 -55 9 0
10 -9 14 -20 7 -11 -7 -20 2 -20 20 0 18 -8 27 -19 21 -10 -6 -24 7 -31 29 -7
22 -21 40 -31 40 -34 0 -20 113 18 147 20 18 42 27 50 20 7 -8 13 5 13 28 0
44 29 63 80 54 17 -3 46 -7 65 -7z"/>
<path d="M1270 1452 c-138 -60 -248 -260 -219 -399 77 -372 574 -433 718 -88
130 311 -190 622 -499 487z m190 -169 c0 -10 22 -15 49 -12 38 4 53 -8 72 -58
29 -78 39 -173 19 -173 -8 0 -27 -28 -40 -61 -18 -42 -32 -55 -47 -40 -14 14
-32 10 -57 -12 -20 -19 -36 -24 -36 -11 0 13 -12 18 -27 12 -15 -5 -38 4 -52
21 -14 17 -34 26 -43 20 -10 -6 -18 2 -18 18 0 16 -14 34 -31 41 -23 8 -30 36
-26 104 4 81 8 88 31 56 25 -34 26 -34 26 1 0 20 19 53 43 74 44 38 137 51
137 20z"/>
</g>
</svg>
