<?xml version="1.0" standalone="no"?>
<!DOCTYPE svg PUBLIC "-//W3C//DTD SVG 20010904//EN"
 "http://www.w3.org/TR/2001/REC-SVG-20010904/DTD/svg10.dtd">
<svg version="1.0" xmlns="http://www.w3.org/2000/svg"
 width="1936.000000pt" height="1936.000000pt" viewBox="0 0 1936.000000 1936.000000"
 preserveAspectRatio="xMidYMid meet">
<metadata>
Created by potrace 1.16, written by Peter Selinger 2001-2019
</metadata>
<g transform="translate(0.000000,1936.000000) scale(0.100000,-0.100000)"
fill="#000000" stroke="none">
<path d="M4465 17049 c-163 -13 -343 -66 -382 -112 l-18 -22 23 19 c12 11 24
17 27 14 3 -3 -1 -11 -10 -18 -13 -11 -15 -137 -15 -1091 0 -856 -3 -1079 -12
-1079 -10 0 -10 -2 0 -9 15 -9 15 -20 1 -38 -7 -7 -6 -14 2 -19 7 -4 9 -3 5 4
-3 6 -2 13 4 17 9 6 14 -8 11 -28 -1 -5 3 -6 9 -2 5 3 10 2 10 -3 0 -10 147
-55 240 -73 97 -19 337 -16 443 4 446 89 806 408 941 835 77 245 76 526 -4
764 -66 195 -171 360 -323 506 -255 243 -593 361 -952 331z"/>
<path d="M9696 14410 c-202 -13 -378 -39 -394 -59 -9 -11 -11 -12 -6 -1 7 13
5 13 -16 -1 -31 -20 -35 -35 -10 -35 11 0 20 4 20 8 0 4 4 8 10 8 14 0 1 -27
-16 -34 -10 -4 -12 -2 -8 5 4 7 1 10 -6 7 -8 -2 -15 -9 -17 -15 -5 -13 36 -11
58 2 12 7 12 6 1 -7 -10 -12 -12 -73 -10 -261 2 -195 0 -243 -9 -235 -19 15
-16 -2 4 -24 9 -10 12 -18 7 -18 -5 0 -18 11 -28 25 -10 14 -25 25 -32 25 -7
0 -18 8 -23 18 -6 9 -11 12 -11 5 0 -6 7 -19 16 -28 9 -8 14 -22 11 -29 -8
-21 3 -27 27 -14 19 10 20 10 8 -5 -12 -14 3 -34 123 -159 75 -78 155 -166
178 -195 l42 -53 70 8 c106 11 408 7 515 -7 313 -41 586 -124 850 -256 651
-327 1137 -933 1314 -1640 147 -586 79 -1197 -193 -1738 -136 -272 -266 -453
-471 -657 -382 -381 -828 -612 -1375 -712 -141 -26 -522 -36 -676 -19 -95 11
-254 39 -321 56 l-28 7 0 -535 c0 -530 0 -536 -20 -532 -11 2 -20 0 -20 -5 0
-5 8 -9 18 -9 9 0 33 -2 52 -6 220 -36 253 -38 575 -39 363 -1 468 8 743 65
501 104 1004 330 1410 635 1084 814 1613 2138 1391 3479 -84 506 -295 1022
-593 1449 -221 316 -543 643 -851 863 -500 357 -1093 582 -1705 647 -179 19
-444 26 -604 16z"/>
<path d="M6120 14193 c-205 -12 -450 -51 -665 -104 -151 -38 -387 -117 -397
-132 -4 -7 -8 -8 -8 -3 0 5 -7 3 -15 -4 -8 -7 -15 -9 -15 -5 0 4 -8 -1 -17
-12 -10 -10 -14 -13 -9 -6 11 17 -21 7 -46 -14 -9 -8 -21 -13 -25 -10 -5 3
-15 1 -23 -4 -13 -9 -13 -10 0 -6 8 2 25 0 37 -4 22 -8 42 5 23 14 -6 3 -5 4
1 3 7 -1 14 -11 15 -22 2 -10 4 -273 4 -582 1 -493 2 -562 15 -552 8 7 13 16
10 20 -3 5 3 7 12 6 10 -2 39 10 64 26 98 60 326 161 468 208 149 50 317 88
486 112 118 16 494 16 610 0 297 -42 553 -119 800 -241 569 -280 1007 -751
1242 -1336 121 -301 177 -600 176 -940 -1 -172 -5 -225 -39 -456 l-6 -46 53
-13 c285 -65 586 -194 824 -351 l104 -68 10 37 c49 186 74 323 97 529 20 179
23 545 5 718 -169 1652 -1412 2962 -3041 3204 -237 35 -515 48 -750 34z"/>
<path d="M4930 13323 c0 -486 5 -609 22 -583 9 14 -3 1140 -12 1140 -6 0 -10
-199 -10 -557z"/>
<path d="M4900 13281 c0 -406 3 -520 13 -524 9 -3 11 104 9 519 -1 335 -6 524
-12 524 -6 0 -10 -186 -10 -519z"/>
<path d="M7255 11055 c-162 -50 -286 -100 -275 -111 5 -5 -3 -9 -23 -8 -38 1
-57 -5 -57 -18 0 -5 6 -6 13 -2 6 4 5 -1 -4 -12 -16 -18 -15 -49 0 -40 4 3 8
-1 8 -9 0 -8 -3 -14 -6 -13 -3 0 -18 0 -33 -1 l-28 -1 0 -520 0 -520 24 0 c30
0 39 -21 20 -48 -10 -15 -11 -23 -3 -28 6 -3 14 -2 18 3 3 5 14 12 24 16 21 8
23 27 1 27 -8 0 -12 -4 -9 -10 3 -5 2 -10 -3 -10 -6 0 -9 11 -8 24 1 17 4 21
13 15 7 -7 13 -5 16 3 4 9 6 7 6 -4 1 -9 6 -20 13 -24 8 -5 9 -1 4 12 -6 15
-5 16 5 7 9 -9 18 -8 38 6 77 53 314 166 456 217 28 9 52 19 54 20 1 2 -6 31
-18 66 -30 93 -68 254 -88 381 -13 86 -18 172 -18 365 0 217 -2 252 -15 252
-8 -1 -64 -16 -125 -35z"/>
<path d="M15152 10980 c-78 -11 -213 -46 -261 -67 -20 -9 -39 -16 -42 -15 -3
1 -6 -9 -5 -21 1 -16 7 -21 21 -20 11 1 16 0 10 -2 -7 -3 -10 -377 -10 -1092
l0 -1088 -5 1083 c-3 714 -8 1081 -15 1080 -7 -2 -10 -372 -10 -1086 0 -859
-3 -1082 -12 -1082 -7 0 -13 -4 -13 -10 0 -13 23 -13 37 1 8 8 13 8 18 0 3 -7
1 -10 -6 -9 -7 2 -15 -5 -17 -16 -2 -11 0 -16 7 -12 6 4 11 3 11 -3 0 -14 145
-58 254 -77 138 -24 379 -15 508 20 358 95 632 317 793 641 178 358 180 739 5
1101 -162 335 -475 576 -855 660 -84 18 -325 26 -413 14z"/>
<path d="M9210 7834 c0 -347 3 -523 10 -519 6 4 10 190 10 526 0 339 -3 519
-10 519 -7 0 -10 -182 -10 -526z"/>
<path d="M11750 6983 c-161 -76 -319 -139 -474 -192 -150 -51 -442 -128 -571
-151 l-71 -12 -62 -128 c-186 -380 -503 -739 -856 -972 -326 -215 -668 -346
-1056 -405 -156 -24 -529 -24 -683 0 -334 51 -637 154 -899 303 -62 35 -115
64 -119 64 -3 0 -12 7 -19 15 -7 8 -16 12 -21 9 -5 -3 -9 -1 -9 4 0 5 -12 18
-27 27 -16 10 -25 14 -21 10 4 -5 3 -14 -3 -22 -8 -8 -8 -13 -1 -13 6 0 12 5
14 11 5 16 38 -17 38 -38 0 -11 -8 -14 -32 -11 l-33 3 3 -562 2 -563 28 -1
c15 -1 35 -2 44 -2 10 0 15 -3 13 -8 -3 -4 -14 -6 -25 -4 -12 2 -18 0 -15 -6
4 -5 11 -7 16 -4 5 4 9 1 9 -5 0 -8 6 -7 21 1 12 6 19 7 16 2 -3 -5 -3 -14 1
-19 10 -16 122 -55 134 -48 6 4 8 3 5 -3 -12 -19 352 -122 573 -162 773 -140
1572 -24 2265 329 367 186 658 402 955 706 416 427 699 915 871 1502 29 100
92 382 87 387 -2 1 -46 -18 -98 -42z"/>
<path d="M4384 4794 c-110 -18 -246 -62 -238 -76 5 -7 2 -9 -9 -5 -12 5 -18
-2 -22 -26 -3 -18 -5 -521 -3 -1119 2 -597 0 -1084 -3 -1082 -3 1 -6 -3 -6
-11 0 -8 5 -11 10 -8 5 3 7 0 5 -8 -6 -18 52 -41 192 -77 95 -24 122 -26 285
-26 155 0 193 3 275 23 232 58 408 153 573 310 327 311 455 761 342 1206 -116
460 -515 823 -985 900 -114 18 -305 18 -416 -1z m-236 -1226 l-3 -1133 -2
1123 c-2 778 -6 1122 -14 1122 -5 0 -7 5 -4 10 3 6 10 10 16 10 5 0 8 -430 7
-1132z"/>
</g>
</svg>
